<mxfile host="app.diagrams.net" modified="2020-08-29T16:42:16.380Z" agent="5.0 (Macintosh; Intel Mac OS X 10_15_5) AppleWebKit/537.36 (KHTML, like Gecko) Chrome/83.0.4103.116 Safari/537.36" etag="PKtzvVSUabsrKigbo3gs" version="13.6.3" type="github">
  <diagram id="C5RBs43oDa-KdzZeNtuy" name="Page-1">
    <mxGraphModel dx="1482" dy="634" grid="0" gridSize="10" guides="1" tooltips="1" connect="1" arrows="1" fold="1" page="0" pageScale="1" pageWidth="827" pageHeight="1169" math="0" shadow="0">
      <root>
        <mxCell id="WIyWlLk6GJQsqaUBKTNV-0" />
        <mxCell id="WIyWlLk6GJQsqaUBKTNV-1" parent="WIyWlLk6GJQsqaUBKTNV-0" />
        <mxCell id="oC4dn-NAeugfY-NwrkB9-57" value="生单" style="rounded=0;whiteSpace=wrap;html=1;fillColor=#b0e3e6;strokeColor=#0e8088;" vertex="1" parent="WIyWlLk6GJQsqaUBKTNV-1">
          <mxGeometry x="-10" y="330" width="120" height="60" as="geometry" />
        </mxCell>
        <mxCell id="oC4dn-NAeugfY-NwrkB9-58" value="收银台展示" style="rounded=0;whiteSpace=wrap;html=1;fillColor=#fad7ac;strokeColor=#b46504;" vertex="1" parent="WIyWlLk6GJQsqaUBKTNV-1">
          <mxGeometry x="240" y="330" width="120" height="60" as="geometry" />
        </mxCell>
        <mxCell id="oC4dn-NAeugfY-NwrkB9-59" value="付款" style="rounded=0;whiteSpace=wrap;html=1;fillColor=#d0cee2;strokeColor=#56517e;" vertex="1" parent="WIyWlLk6GJQsqaUBKTNV-1">
          <mxGeometry x="480" y="330" width="120" height="60" as="geometry" />
        </mxCell>
        <mxCell id="oC4dn-NAeugfY-NwrkB9-60" value="结果详情展示" style="rounded=0;whiteSpace=wrap;html=1;fillColor=#cce5ff;strokeColor=#36393d;" vertex="1" parent="WIyWlLk6GJQsqaUBKTNV-1">
          <mxGeometry x="720" y="330" width="120" height="60" as="geometry" />
        </mxCell>
        <mxCell id="oC4dn-NAeugfY-NwrkB9-69" value="" style="shape=flexArrow;endArrow=classic;html=1;exitX=1;exitY=0.5;exitDx=0;exitDy=0;fillColor=#b0e3e6;strokeColor=#0e8088;entryX=0;entryY=0.5;entryDx=0;entryDy=0;" edge="1" parent="WIyWlLk6GJQsqaUBKTNV-1" source="oC4dn-NAeugfY-NwrkB9-57" target="oC4dn-NAeugfY-NwrkB9-58">
          <mxGeometry width="50" height="50" relative="1" as="geometry">
            <mxPoint x="410" y="390" as="sourcePoint" />
            <mxPoint x="260" y="360" as="targetPoint" />
          </mxGeometry>
        </mxCell>
        <mxCell id="oC4dn-NAeugfY-NwrkB9-71" value="" style="shape=flexArrow;endArrow=classic;html=1;exitX=1;exitY=0.5;exitDx=0;exitDy=0;entryX=0;entryY=0.5;entryDx=0;entryDy=0;fillColor=#fad7ac;strokeColor=#b46504;" edge="1" parent="WIyWlLk6GJQsqaUBKTNV-1" source="oC4dn-NAeugfY-NwrkB9-58" target="oC4dn-NAeugfY-NwrkB9-59">
          <mxGeometry width="50" height="50" relative="1" as="geometry">
            <mxPoint x="400" y="359.5" as="sourcePoint" />
            <mxPoint x="440" y="360" as="targetPoint" />
          </mxGeometry>
        </mxCell>
        <mxCell id="oC4dn-NAeugfY-NwrkB9-72" value="" style="shape=flexArrow;endArrow=classic;html=1;exitX=1;exitY=0.5;exitDx=0;exitDy=0;entryX=0;entryY=0.5;entryDx=0;entryDy=0;fillColor=#d0cee2;strokeColor=#56517e;" edge="1" parent="WIyWlLk6GJQsqaUBKTNV-1" source="oC4dn-NAeugfY-NwrkB9-59" target="oC4dn-NAeugfY-NwrkB9-60">
          <mxGeometry width="50" height="50" relative="1" as="geometry">
            <mxPoint x="410" y="390" as="sourcePoint" />
            <mxPoint x="460" y="340" as="targetPoint" />
          </mxGeometry>
        </mxCell>
        <mxCell id="oC4dn-NAeugfY-NwrkB9-75" value="Scan" style="shape=parallelogram;perimeter=parallelogramPerimeter;whiteSpace=wrap;html=1;fixedSize=1;fillColor=#b0e3e6;strokeColor=#0e8088;" vertex="1" parent="WIyWlLk6GJQsqaUBKTNV-1">
          <mxGeometry x="-70" y="240" width="80" height="40" as="geometry" />
        </mxCell>
        <mxCell id="oC4dn-NAeugfY-NwrkB9-76" value="DP" style="shape=parallelogram;perimeter=parallelogramPerimeter;whiteSpace=wrap;html=1;fixedSize=1;fillColor=#b0e3e6;strokeColor=#0e8088;" vertex="1" parent="WIyWlLk6GJQsqaUBKTNV-1">
          <mxGeometry x="20" y="240" width="80" height="40" as="geometry" />
        </mxCell>
        <mxCell id="oC4dn-NAeugfY-NwrkB9-77" value="" style="shape=flexArrow;endArrow=classic;html=1;exitX=0.5;exitY=1;exitDx=0;exitDy=0;fillColor=#b0e3e6;strokeColor=#0e8088;entryX=0;entryY=0;entryDx=0;entryDy=0;" edge="1" parent="WIyWlLk6GJQsqaUBKTNV-1" source="oC4dn-NAeugfY-NwrkB9-75" target="oC4dn-NAeugfY-NwrkB9-57">
          <mxGeometry width="50" height="50" relative="1" as="geometry">
            <mxPoint x="410" y="390" as="sourcePoint" />
            <mxPoint x="460" y="340" as="targetPoint" />
          </mxGeometry>
        </mxCell>
        <mxCell id="oC4dn-NAeugfY-NwrkB9-78" value="" style="shape=flexArrow;endArrow=classic;html=1;exitX=0.5;exitY=1;exitDx=0;exitDy=0;entryX=0.5;entryY=0;entryDx=0;entryDy=0;fillColor=#b0e3e6;strokeColor=#0e8088;" edge="1" parent="WIyWlLk6GJQsqaUBKTNV-1" source="oC4dn-NAeugfY-NwrkB9-76" target="oC4dn-NAeugfY-NwrkB9-57">
          <mxGeometry width="50" height="50" relative="1" as="geometry">
            <mxPoint x="410" y="390" as="sourcePoint" />
            <mxPoint x="460" y="340" as="targetPoint" />
          </mxGeometry>
        </mxCell>
        <mxCell id="oC4dn-NAeugfY-NwrkB9-79" value="...." style="shape=parallelogram;perimeter=parallelogramPerimeter;whiteSpace=wrap;html=1;fixedSize=1;fillColor=#b0e3e6;strokeColor=#0e8088;" vertex="1" parent="WIyWlLk6GJQsqaUBKTNV-1">
          <mxGeometry x="120" y="240" width="70" height="40" as="geometry" />
        </mxCell>
        <mxCell id="oC4dn-NAeugfY-NwrkB9-80" value="" style="shape=flexArrow;endArrow=classic;html=1;exitX=0.25;exitY=1;exitDx=0;exitDy=0;entryX=1;entryY=0;entryDx=0;entryDy=0;fillColor=#b0e3e6;strokeColor=#0e8088;" edge="1" parent="WIyWlLk6GJQsqaUBKTNV-1" source="oC4dn-NAeugfY-NwrkB9-79" target="oC4dn-NAeugfY-NwrkB9-57">
          <mxGeometry width="50" height="50" relative="1" as="geometry">
            <mxPoint x="410" y="390" as="sourcePoint" />
            <mxPoint x="460" y="340" as="targetPoint" />
          </mxGeometry>
        </mxCell>
        <mxCell id="oC4dn-NAeugfY-NwrkB9-82" value="用户信息验证" style="rounded=0;whiteSpace=wrap;html=1;fillColor=#b0e3e6;strokeColor=#0e8088;" vertex="1" parent="WIyWlLk6GJQsqaUBKTNV-1">
          <mxGeometry x="-80" y="436" width="80" height="40" as="geometry" />
        </mxCell>
        <mxCell id="oC4dn-NAeugfY-NwrkB9-83" value="生成order信息" style="rounded=0;whiteSpace=wrap;html=1;fillColor=#b0e3e6;strokeColor=#0e8088;" vertex="1" parent="WIyWlLk6GJQsqaUBKTNV-1">
          <mxGeometry x="80" y="436" width="90" height="40" as="geometry" />
        </mxCell>
        <mxCell id="oC4dn-NAeugfY-NwrkB9-84" value="" style="shape=flexArrow;endArrow=classic;html=1;exitX=0.25;exitY=1;exitDx=0;exitDy=0;entryX=0.5;entryY=0;entryDx=0;entryDy=0;fillColor=#b0e3e6;strokeColor=#0e8088;" edge="1" parent="WIyWlLk6GJQsqaUBKTNV-1" source="oC4dn-NAeugfY-NwrkB9-57" target="oC4dn-NAeugfY-NwrkB9-82">
          <mxGeometry width="50" height="50" relative="1" as="geometry">
            <mxPoint x="410" y="390" as="sourcePoint" />
            <mxPoint x="460" y="340" as="targetPoint" />
          </mxGeometry>
        </mxCell>
        <mxCell id="oC4dn-NAeugfY-NwrkB9-85" value="" style="shape=flexArrow;endArrow=classic;html=1;exitX=1;exitY=0.5;exitDx=0;exitDy=0;fillColor=#b0e3e6;strokeColor=#0e8088;" edge="1" parent="WIyWlLk6GJQsqaUBKTNV-1" source="oC4dn-NAeugfY-NwrkB9-82" target="oC4dn-NAeugfY-NwrkB9-83">
          <mxGeometry width="50" height="50" relative="1" as="geometry">
            <mxPoint x="410" y="376" as="sourcePoint" />
            <mxPoint x="460" y="326" as="targetPoint" />
          </mxGeometry>
        </mxCell>
        <mxCell id="oC4dn-NAeugfY-NwrkB9-86" value="" style="shape=flexArrow;endArrow=classic;html=1;exitX=0.5;exitY=0;exitDx=0;exitDy=0;entryX=0.75;entryY=1;entryDx=0;entryDy=0;fillColor=#b0e3e6;strokeColor=#0e8088;" edge="1" parent="WIyWlLk6GJQsqaUBKTNV-1" source="oC4dn-NAeugfY-NwrkB9-83" target="oC4dn-NAeugfY-NwrkB9-57">
          <mxGeometry width="50" height="50" relative="1" as="geometry">
            <mxPoint x="410" y="390" as="sourcePoint" />
            <mxPoint x="460" y="340" as="targetPoint" />
          </mxGeometry>
        </mxCell>
        <mxCell id="oC4dn-NAeugfY-NwrkB9-87" value="order info" style="shape=parallelogram;perimeter=parallelogramPerimeter;whiteSpace=wrap;html=1;fixedSize=1;fillColor=#fad7ac;strokeColor=#b46504;" vertex="1" parent="WIyWlLk6GJQsqaUBKTNV-1">
          <mxGeometry x="220" y="240" width="100" height="40" as="geometry" />
        </mxCell>
        <mxCell id="oC4dn-NAeugfY-NwrkB9-88" value="wallet信息" style="shape=parallelogram;perimeter=parallelogramPerimeter;whiteSpace=wrap;html=1;fixedSize=1;fillColor=#fad7ac;strokeColor=#b46504;" vertex="1" parent="WIyWlLk6GJQsqaUBKTNV-1">
          <mxGeometry x="340" y="240" width="100" height="40" as="geometry" />
        </mxCell>
        <mxCell id="oC4dn-NAeugfY-NwrkB9-89" value="" style="shape=flexArrow;endArrow=classic;html=1;exitX=0.25;exitY=1;exitDx=0;exitDy=0;entryX=0.25;entryY=0;entryDx=0;entryDy=0;fillColor=#fad7ac;strokeColor=#b46504;" edge="1" parent="WIyWlLk6GJQsqaUBKTNV-1" source="oC4dn-NAeugfY-NwrkB9-87" target="oC4dn-NAeugfY-NwrkB9-58">
          <mxGeometry width="50" height="50" relative="1" as="geometry">
            <mxPoint x="300" y="330" as="sourcePoint" />
            <mxPoint x="350" y="280" as="targetPoint" />
          </mxGeometry>
        </mxCell>
        <mxCell id="oC4dn-NAeugfY-NwrkB9-90" value="" style="shape=flexArrow;endArrow=classic;html=1;exitX=0.25;exitY=1;exitDx=0;exitDy=0;entryX=0.75;entryY=0;entryDx=0;entryDy=0;fillColor=#fad7ac;strokeColor=#b46504;" edge="1" parent="WIyWlLk6GJQsqaUBKTNV-1" source="oC4dn-NAeugfY-NwrkB9-88" target="oC4dn-NAeugfY-NwrkB9-58">
          <mxGeometry width="50" height="50" relative="1" as="geometry">
            <mxPoint x="410" y="390" as="sourcePoint" />
            <mxPoint x="460" y="340" as="targetPoint" />
          </mxGeometry>
        </mxCell>
        <mxCell id="oC4dn-NAeugfY-NwrkB9-91" value="银行卡信息" style="shape=parallelogram;perimeter=parallelogramPerimeter;whiteSpace=wrap;html=1;fixedSize=1;fillColor=#fad7ac;strokeColor=#b46504;" vertex="1" parent="WIyWlLk6GJQsqaUBKTNV-1">
          <mxGeometry x="200" y="436" width="100" height="40" as="geometry" />
        </mxCell>
        <mxCell id="oC4dn-NAeugfY-NwrkB9-92" value="promotion info" style="shape=parallelogram;perimeter=parallelogramPerimeter;whiteSpace=wrap;html=1;fixedSize=1;fillColor=#fad7ac;strokeColor=#b46504;" vertex="1" parent="WIyWlLk6GJQsqaUBKTNV-1">
          <mxGeometry x="314" y="436" width="100" height="40" as="geometry" />
        </mxCell>
        <mxCell id="oC4dn-NAeugfY-NwrkB9-93" value="" style="shape=flexArrow;endArrow=classic;html=1;exitX=0.5;exitY=0;exitDx=0;exitDy=0;entryX=0.25;entryY=1;entryDx=0;entryDy=0;endWidth=16;endSize=4.67;fillColor=#fad7ac;strokeColor=#b46504;" edge="1" parent="WIyWlLk6GJQsqaUBKTNV-1" source="oC4dn-NAeugfY-NwrkB9-91" target="oC4dn-NAeugfY-NwrkB9-58">
          <mxGeometry width="50" height="50" relative="1" as="geometry">
            <mxPoint x="410" y="390" as="sourcePoint" />
            <mxPoint x="460" y="340" as="targetPoint" />
            <Array as="points" />
          </mxGeometry>
        </mxCell>
        <mxCell id="oC4dn-NAeugfY-NwrkB9-95" value="验单" style="rounded=0;whiteSpace=wrap;html=1;fillColor=#e1d5e7;strokeColor=#9673a6;" vertex="1" parent="WIyWlLk6GJQsqaUBKTNV-1">
          <mxGeometry x="580" y="440" width="90" height="40" as="geometry" />
        </mxCell>
        <mxCell id="oC4dn-NAeugfY-NwrkB9-96" value="" style="shape=flexArrow;endArrow=classic;html=1;exitX=0.25;exitY=1;exitDx=0;exitDy=0;entryX=0.5;entryY=0;entryDx=0;entryDy=0;fillColor=#e1d5e7;strokeColor=#9673a6;" edge="1" parent="WIyWlLk6GJQsqaUBKTNV-1" target="oC4dn-NAeugfY-NwrkB9-99">
          <mxGeometry width="50" height="50" relative="1" as="geometry">
            <mxPoint x="520" y="390" as="sourcePoint" />
            <mxPoint x="470" y="436" as="targetPoint" />
          </mxGeometry>
        </mxCell>
        <mxCell id="oC4dn-NAeugfY-NwrkB9-97" value="" style="shape=flexArrow;endArrow=classic;html=1;exitX=1;exitY=0.5;exitDx=0;exitDy=0;fillColor=#e1d5e7;strokeColor=#9673a6;" edge="1" parent="WIyWlLk6GJQsqaUBKTNV-1" target="oC4dn-NAeugfY-NwrkB9-95" source="oC4dn-NAeugfY-NwrkB9-99">
          <mxGeometry width="50" height="50" relative="1" as="geometry">
            <mxPoint x="510" y="456" as="sourcePoint" />
            <mxPoint x="870" y="326" as="targetPoint" />
          </mxGeometry>
        </mxCell>
        <mxCell id="oC4dn-NAeugfY-NwrkB9-98" value="" style="shape=flexArrow;endArrow=classic;html=1;exitX=0.5;exitY=0;exitDx=0;exitDy=0;fillColor=#e1d5e7;strokeColor=#9673a6;" edge="1" parent="WIyWlLk6GJQsqaUBKTNV-1" source="oC4dn-NAeugfY-NwrkB9-95">
          <mxGeometry width="50" height="50" relative="1" as="geometry">
            <mxPoint x="820" y="390" as="sourcePoint" />
            <mxPoint x="580" y="390" as="targetPoint" />
          </mxGeometry>
        </mxCell>
        <mxCell id="oC4dn-NAeugfY-NwrkB9-99" value="PP验证" style="rounded=0;whiteSpace=wrap;html=1;fillColor=#e1d5e7;strokeColor=#9673a6;" vertex="1" parent="WIyWlLk6GJQsqaUBKTNV-1">
          <mxGeometry x="440" y="440" width="80" height="40" as="geometry" />
        </mxCell>
        <mxCell id="oC4dn-NAeugfY-NwrkB9-101" value="order detail" style="shape=parallelogram;perimeter=parallelogramPerimeter;whiteSpace=wrap;html=1;fixedSize=1;fillColor=#cce5ff;strokeColor=#36393d;" vertex="1" parent="WIyWlLk6GJQsqaUBKTNV-1">
          <mxGeometry x="727" y="240" width="100" height="40" as="geometry" />
        </mxCell>
        <mxCell id="oC4dn-NAeugfY-NwrkB9-104" value="" style="shape=flexArrow;endArrow=classic;html=1;exitX=0.5;exitY=1;exitDx=0;exitDy=0;entryX=0.5;entryY=0;entryDx=0;entryDy=0;fillColor=#cce5ff;strokeColor=#36393d;" edge="1" parent="WIyWlLk6GJQsqaUBKTNV-1" source="oC4dn-NAeugfY-NwrkB9-101" target="oC4dn-NAeugfY-NwrkB9-60">
          <mxGeometry width="50" height="50" relative="1" as="geometry">
            <mxPoint x="740" y="310" as="sourcePoint" />
            <mxPoint x="790" y="260" as="targetPoint" />
          </mxGeometry>
        </mxCell>
        <mxCell id="oC4dn-NAeugfY-NwrkB9-106" value="" style="shape=flexArrow;endArrow=classic;html=1;exitX=0.5;exitY=0;exitDx=0;exitDy=0;entryX=0.75;entryY=1;entryDx=0;entryDy=0;fillColor=#fad7ac;strokeColor=#b46504;" edge="1" parent="WIyWlLk6GJQsqaUBKTNV-1" source="oC4dn-NAeugfY-NwrkB9-92" target="oC4dn-NAeugfY-NwrkB9-58">
          <mxGeometry width="50" height="50" relative="1" as="geometry">
            <mxPoint x="255" y="290" as="sourcePoint" />
            <mxPoint x="284" y="340" as="targetPoint" />
          </mxGeometry>
        </mxCell>
        <mxCell id="oC4dn-NAeugfY-NwrkB9-107" value="" style="shape=flexArrow;endArrow=classic;html=1;endWidth=12;endSize=7;fillColor=#f8cecc;strokeColor=#b85450;" edge="1" parent="WIyWlLk6GJQsqaUBKTNV-1">
          <mxGeometry width="50" height="50" relative="1" as="geometry">
            <mxPoint x="-10" y="528" as="sourcePoint" />
            <mxPoint x="880" y="528" as="targetPoint" />
          </mxGeometry>
        </mxCell>
        <mxCell id="oC4dn-NAeugfY-NwrkB9-109" value="" style="endArrow=classic;html=1;fillColor=#f8cecc;strokeColor=#b85450;" edge="1" parent="WIyWlLk6GJQsqaUBKTNV-1">
          <mxGeometry width="50" height="50" relative="1" as="geometry">
            <mxPoint x="180" y="364" as="sourcePoint" />
            <mxPoint x="180" y="524" as="targetPoint" />
          </mxGeometry>
        </mxCell>
        <mxCell id="oC4dn-NAeugfY-NwrkB9-110" value="" style="endArrow=classic;html=1;fillColor=#f8cecc;strokeColor=#b85450;" edge="1" parent="WIyWlLk6GJQsqaUBKTNV-1">
          <mxGeometry width="50" height="50" relative="1" as="geometry">
            <mxPoint x="420" y="364" as="sourcePoint" />
            <mxPoint x="420" y="524" as="targetPoint" />
          </mxGeometry>
        </mxCell>
        <mxCell id="oC4dn-NAeugfY-NwrkB9-111" value="" style="endArrow=classic;html=1;fillColor=#f8cecc;strokeColor=#b85450;" edge="1" parent="WIyWlLk6GJQsqaUBKTNV-1">
          <mxGeometry width="50" height="50" relative="1" as="geometry">
            <mxPoint x="690" y="364" as="sourcePoint" />
            <mxPoint x="690" y="524" as="targetPoint" />
          </mxGeometry>
        </mxCell>
        <mxCell id="oC4dn-NAeugfY-NwrkB9-113" value="创建Order&lt;span&gt;&lt;br&gt;验证用户KYC、余额、银行卡信息&lt;br&gt;&lt;/span&gt;Precheck Order" style="text;html=1;strokeColor=none;fillColor=none;align=left;verticalAlign=middle;whiteSpace=wrap;rounded=0;" vertex="1" parent="WIyWlLk6GJQsqaUBKTNV-1">
          <mxGeometry x="-10" y="540" width="200" height="70" as="geometry" />
        </mxCell>
        <mxCell id="oC4dn-NAeugfY-NwrkB9-114" value="Order Info展示&lt;br&gt;Promotion Info展示&lt;br&gt;Walllet展示&lt;br&gt;银行卡列表展示" style="text;html=1;strokeColor=none;fillColor=none;align=left;verticalAlign=middle;whiteSpace=wrap;rounded=0;" vertex="1" parent="WIyWlLk6GJQsqaUBKTNV-1">
          <mxGeometry x="250" y="545" width="130" height="70" as="geometry" />
        </mxCell>
        <mxCell id="oC4dn-NAeugfY-NwrkB9-115" value="密码/TouchID/FaceID验证&lt;br&gt;验证订单、下单&lt;br&gt;付款" style="text;html=1;strokeColor=none;fillColor=none;align=left;verticalAlign=middle;whiteSpace=wrap;rounded=0;" vertex="1" parent="WIyWlLk6GJQsqaUBKTNV-1">
          <mxGeometry x="480" y="544" width="170" height="70" as="geometry" />
        </mxCell>
        <mxCell id="oC4dn-NAeugfY-NwrkB9-116" value="Order Detail的展示" style="text;html=1;strokeColor=none;fillColor=none;align=left;verticalAlign=middle;whiteSpace=wrap;rounded=0;" vertex="1" parent="WIyWlLk6GJQsqaUBKTNV-1">
          <mxGeometry x="710" y="544" width="170" height="70" as="geometry" />
        </mxCell>
        <mxCell id="oC4dn-NAeugfY-NwrkB9-117" value="&lt;font style=&quot;font-size: 15px&quot;&gt;&lt;b&gt;收单业务思考&lt;/b&gt;&lt;/font&gt;" style="text;html=1;strokeColor=none;fillColor=none;align=center;verticalAlign=middle;whiteSpace=wrap;rounded=0;" vertex="1" parent="WIyWlLk6GJQsqaUBKTNV-1">
          <mxGeometry x="-10" y="140" width="890" height="40" as="geometry" />
        </mxCell>
      </root>
    </mxGraphModel>
  </diagram>
</mxfile>
